<svg width="82" height="82" viewBox="0 0 82 82" fill="none" xmlns="http://www.w3.org/2000/svg">
    <path d="M41 82C63.6437 82 82 63.6437 82 41C82 18.3563 63.6437 0 41 0C18.3563 0 0 18.3563 0 41C0 63.6437 18.3563 82 41 82Z" fill="#F51A51"/>
    <path d="M82 41.5498C82 52.2779 77.6804 62.5666 69.9914 70.1524C62.3024 77.7383 51.8739 82 41 82C30.1261 82 19.6976 77.7383 12.0086 70.1524C4.31963 62.5666 1.62033e-07 52.2779 0 41.5498C0.00122562 39.8432 0.107572 38.1383 0.318448 36.4445C1.57534 46.2139 6.40074 55.1956 13.8901 61.7059C21.3794 68.2162 31.0183 71.808 41 71.808C50.9817 71.808 60.6206 68.2162 68.11 61.7059C75.5993 55.1956 80.4247 46.2139 81.6816 36.4445C81.8924 38.1383 81.9987 39.8432 82 41.5498Z" fill="#F56C8E"/>
    <path d="M56.1208 19.2072L21.6768 53.6512L28.3642 60.3387L62.8082 25.8946L56.1208 19.2072Z" fill="white"/>
    <path d="M64.3909 55.1566L28.998 19.7637L22.3106 26.4512L57.7035 61.844L64.3909 55.1566Z" fill="white"/>
    <path d="M12.7834 33.1011C12.7834 33.172 12.7203 33.3375 12.8701 32.6125C13.0198 31.8874 13.2247 30.9495 13.4533 30.1299C14.1092 27.7598 15.0906 25.492 16.3693 23.3914C20.9247 15.9673 28.7743 13.1459 37.2151 13.3981C40.2573 13.4848 40.2573 8.75604 37.2151 8.66935C27.5527 8.3935 18.5445 11.8218 12.9725 19.9474C10.2994 23.8727 8.61241 28.3849 8.05465 33.1011C7.72364 36.1196 12.4602 36.0959 12.7834 33.1011Z" fill="#F9F9F9"/>
</svg>