<svg width="72" height="72" viewBox="0 0 72 72" fill="none" xmlns="http://www.w3.org/2000/svg">
<path d="M37.9125 20.3569C37.9125 20.3569 38.5425 22.7869 35.8425 23.4169C33.48 23.9738 32.985 21.5888 32.985 21.5888C32.985 21.5888 32.4619 19.1813 31.3819 18.945C30.9713 18.855 30.8813 18.9563 29.7056 18.7819C27.6975 18.4782 27.1688 17.505 27 16.6219C26.9438 16.3519 26.9213 16.0875 26.9044 15.8569C26.8763 15.5363 26.8481 15.2775 26.7356 15.1313C26.6456 15.0132 25.3969 14.535 25.5656 13.9332C25.7906 13.1344 27.2644 12.4988 27.2025 11.7563C27.2081 11.565 27.0844 10.9407 27.0675 10.8563C26.9494 10.1475 26.9888 9.15753 27.2138 8.17878C27.8325 5.47878 29.5931 3.4369 32.6138 3.15003C35.3194 2.90253 38.4131 4.91628 39.6788 7.31815C40.4888 8.8594 39.3131 12.8363 37.9294 14.94C36.1294 17.685 37.9125 20.3569 37.9125 20.3569Z" fill="#FFD3B6"/>
<path d="M28.395 16.3237C27.9675 16.5994 27.4837 16.6781 27 16.6219C26.9437 16.3519 26.9212 16.0875 26.9044 15.8569C27.2869 15.9356 27.7706 15.9131 28.0575 15.8175C28.5862 15.6375 28.8675 16.0312 28.395 16.3237Z" fill="#795548"/>
<path d="M29.9864 12.3434C30.0074 11.7971 29.7375 11.3431 29.3836 11.3295C29.0297 11.3159 28.7258 11.7478 28.7048 12.2942C28.6838 12.8405 28.9537 13.2945 29.3076 13.3081C29.6615 13.3217 29.9654 12.8898 29.9864 12.3434Z" fill="#404040"/>
<path d="M28.9913 10.9406C28.3725 11.1431 28.2094 10.7381 28.4119 10.395C28.5581 10.1475 28.9294 9.92809 29.6663 10.0462C30.3581 10.1587 30.6563 10.5468 30.8475 10.7831C31.0388 11.0193 31.0275 11.2612 30.87 11.2837C30.6506 11.3287 29.7563 10.6931 28.9913 10.9406Z" fill="#6D4C41"/>
<path d="M55.6087 46.485L45.1631 48.5719L42.255 38.52L35.2631 43.2056L40.3594 53.4431L40.3819 53.4263C40.8091 54.1844 41.5123 54.7485 42.345 55.0013C42.5981 55.08 42.8512 55.125 43.11 55.1419V55.1531L43.1944 55.1475C43.5094 55.1644 43.8187 55.1419 44.1169 55.08L57.0094 50.1806L55.6087 46.485Z" fill="#C29B00"/>
<path d="M57.8475 44.3419C57.6675 44.0382 57.2794 43.9425 56.9756 44.1225L55.6425 44.9213C54.7369 45.4613 54.2475 46.9969 54.2475 46.9969L56.2275 50.3213L59.0006 52.7288C59.715 53.2856 60.6994 53.3475 61.4812 52.8919L62.0831 52.5375C62.3475 52.38 62.4375 52.0369 62.28 51.7725L57.8475 44.3419Z" fill="#5AED4F"/>
<path d="M25.2337 64.0125L31.6518 51.75C31.6518 51.75 39.645 45.135 40.3425 44.6682C42.9469 42.9244 43.4643 40.5 43.2056 38.7394C43.0031 37.3725 42.0975 35.5557 42.0975 35.5557L31.6068 38.6832L32.1018 40.6069C32.1018 40.6069 28.89 44.7582 28.1418 45.6244C27.3937 46.4907 26.1112 47.7 25.1156 51.1144C24.0637 54.7144 21.4256 63.3938 21.4256 63.3938L25.2337 64.0125Z" fill="#FFCC00"/>
<path d="M25.2281 67.8318C25.5769 67.8881 25.9031 67.6518 25.9594 67.3087L26.2069 65.7731C26.3813 64.7325 25.5206 63.3712 25.5206 63.3712L21.7013 62.7412L18.0731 63.3093C17.1844 63.5006 16.5038 64.2093 16.3519 65.1037L16.2338 65.7956C16.1831 66.0993 16.3856 66.3862 16.6894 66.4368L25.2281 67.8318Z" fill="#5AED4F"/>
<path d="M28.1588 27.5738L23.1188 23.7375L20.6663 26.3588L25.7513 31.2863L25.7569 31.2807C26.7525 32.3213 29.0869 33.03 31.0275 31.2638C32.8725 29.5819 35.1506 25.9988 35.1506 25.9988L31.2075 22.8375L28.1588 27.5738Z" fill="#FFD3B6"/>
<path d="M28.2769 25.2788C29.7225 29.3231 33.2662 29.4469 33.2662 29.4469L36.09 24.6094C36.4545 23.9841 36.5562 23.2397 36.3727 22.5396C36.1893 21.8394 35.7356 21.2406 35.1112 20.8744L34.6444 20.5988C33.345 19.8394 32.2425 20.2106 30.4931 22.7644C28.9237 25.065 28.2769 25.2788 28.2769 25.2788Z" fill="#915959"/>
<path d="M31.6069 38.6775C30.2119 33.1425 29.9531 29.2556 30.2681 26.1394C30.6731 22.2131 32.5463 19.8675 34.65 19.125C37.2488 18.2081 39.0488 19.53 39.7744 21.8813C40.2694 23.4844 40.1738 24.7163 40.1344 25.4813C40.1344 25.4813 39.7744 29.6831 43.1156 34.9425C43.1156 34.9425 42.795 37.2263 37.4625 38.4806C35.0888 39.0375 31.6069 38.6775 31.6069 38.6775Z" fill="#915959"/>
<path d="M40.1963 33.5306C40.1963 33.5306 37.755 32.3156 37.7269 32.3044C37.6538 32.265 37.5737 32.2405 37.4911 32.2322C37.4085 32.2239 37.3251 32.232 37.2456 32.256C37.1661 32.2801 37.0922 32.3196 37.0281 32.3723C36.964 32.425 36.9109 32.4898 36.8719 32.5631L36.3488 33.5419C36.2644 33.705 36.2588 33.885 36.315 34.0481C36.0338 34.2112 35.3419 34.6387 35.1956 34.9256C35.0269 35.2519 35.2181 35.595 35.3981 35.6737C35.6063 35.7637 35.7019 36.0562 35.64 36.2756C35.5725 36.5006 35.5781 36.7312 35.685 36.9169C35.7919 37.1025 35.9269 37.1756 36.1856 37.2262C36.3094 37.2487 36.4388 37.4062 36.4388 37.53C36.4331 37.7212 36.4331 38.0531 36.5288 38.1769C36.72 38.43 37.035 38.3512 37.1981 38.5369C37.26 38.61 37.2656 38.9306 37.395 39.0487C37.7775 39.4087 39.0206 38.745 39.0206 38.745L41.3944 36.5456L40.1963 33.5306Z" fill="#FFD3B6"/>
<path d="M39.4088 33.1481L40.9106 33.5699L41.94 36.4106C41.94 36.4106 38.7281 39.5718 38.1825 38.6887C38.0081 38.4131 38.3288 38.1149 37.8619 37.9406C37.53 37.8168 37.2825 37.6593 37.3781 37.1474C37.4175 36.9562 37.2656 36.7199 37.1306 36.7031C36.5231 36.6299 36.3656 36.2924 36.5456 35.8649C36.6469 35.6287 36.6244 35.2293 36.2813 35.0493C36.1575 34.9818 35.9831 34.7062 36.0619 34.3124C36.1913 33.6993 39.4088 33.1481 39.4088 33.1481Z" fill="#FFD3B6"/>
<path d="M41.4731 36.765L47.0363 33.0132V33.0075C47.7056 32.3438 47.9419 31.8825 48.0769 31.3257C48.5044 29.5819 47.3681 28.3669 47.3681 28.3669L42.2213 22.6125L39.0488 25.8919L43.5713 30.4144L40.1906 33.5363L41.4731 36.765Z" fill="#FFD3B6"/>
<path d="M41.5856 29.2556C41.5856 29.2556 44.9944 25.8862 44.9044 23.2931C44.9044 23.2931 43.2787 23.2875 40.86 21.4594C39.3356 20.3119 37.3106 20.2162 36.495 21.555C35.7694 22.7362 35.8875 24.1931 37.2825 25.8637C38.3287 27.1069 41.5856 29.2556 41.5856 29.2556Z" fill="#915959"/>
<path d="M20.4131 24.4069L20.3962 24.4182C20.1543 24.7219 19.7381 24.8063 19.4681 24.5982L18.3712 23.7713C18.1012 23.5688 18.0787 23.1526 18.3206 22.8488C18.5624 22.5451 18.9787 22.4607 19.2487 22.6688L20.3456 23.4957C20.6212 23.7038 20.6606 24.1032 20.4131 24.4069Z" fill="#FFD3B6"/>
<path d="M21.3356 20.9475C21.3525 20.9588 21.3581 20.97 21.3581 20.97C21.8587 21.5044 22.3031 21.9488 22.4944 22.0669C23.0006 22.3875 23.4731 22.7925 23.7656 23.3607C24.3112 24.4238 23.6137 25.47 22.7981 26.2407C21.9881 27.0169 21.4762 27.1857 20.5931 27.0394C19.8731 26.9213 18.3487 25.3069 18.3487 25.3069C18.1912 25.1213 18.0112 24.93 17.8312 24.75C17.7637 24.6825 17.6906 24.615 17.6231 24.5419L17.6175 24.5363C17.4094 24.3338 17.3812 24.0638 17.6119 23.7825C17.9156 23.4113 18.2137 23.6025 18.2475 23.6307L18.2531 23.6363C18.3937 23.7657 18.5456 23.94 18.6581 24.0244C18.9844 24.2663 19.1644 24.3113 19.1644 24.3113L20.7056 22.3538L20.1825 21.6563C20.1825 21.6563 20.1769 21.645 20.16 21.6282C20.1037 21.5382 19.8844 21.2175 20.3006 20.8407C20.7619 20.4469 21.24 20.8575 21.3356 20.9475Z" fill="#FFD3B6"/>
<path d="M21.285 23.6026C21.015 23.8894 20.5931 23.9344 20.34 23.7094L19.1756 22.6688C18.9225 22.4438 18.9337 22.0276 19.2037 21.7407C19.4737 21.4538 19.8956 21.4088 20.1487 21.6338L21.3131 22.6744C21.5606 22.9051 21.5494 23.3157 21.285 23.6026Z" fill="#FFD3B6"/>
<path d="M19.7719 23.7713C20.025 23.4057 20.3344 22.9557 20.6775 22.5676C20.7281 22.5113 20.7731 22.4607 20.8237 22.4101C21.2962 21.9207 21.915 21.8363 22.6912 22.2582C22.7194 22.2751 22.7419 22.2863 22.77 22.3032C22.815 22.3313 22.86 22.3594 22.9106 22.3876L22.9162 22.3932C22.9837 22.4382 23.0512 22.4832 23.1187 22.5338C23.3494 22.7026 23.5237 22.9107 23.6306 23.1132C24.0581 23.7938 23.9344 24.4407 23.9344 24.4407C23.9344 24.4407 23.4394 25.9482 22.7081 25.6838C21.9769 25.4194 21.6 24.3788 21.6 24.3788L21.7912 23.6251C21.5719 23.6026 21.3806 23.6982 21.1219 23.9907C21.0375 24.0863 20.9419 24.2044 20.8294 24.3451C20.8181 24.3619 20.6775 24.5363 20.6662 24.5476C20.4975 24.7332 20.3062 24.8232 20.0756 24.8063C19.7775 24.7894 19.5244 24.5026 19.3837 24.3901C19.4906 24.2551 19.6312 23.9682 19.7719 23.7713Z" fill="#FFD3B6"/>
<path d="M19.44 25.5094L20.3513 24.7613L20.835 24.2101L21.465 23.6588L21.6844 23.7544L21.5494 24.4744L22.0219 25.1832L22.32 25.4363L20.7731 26.5332L19.44 25.5094Z" fill="#FFD3B6"/>
<path d="M19.5019 25.0988C19.485 25.4476 19.1475 25.6388 19.17 25.6445C19.2656 25.6838 19.7381 25.5657 20.2612 24.9807C20.6662 24.5251 21.0544 23.9345 21.5269 23.7938C21.3637 24.5926 21.7181 25.2057 22.3706 25.4476C21.87 24.9807 21.465 24.1932 21.9206 23.5632C21.5494 23.3382 21.1162 23.7095 20.8969 23.9795C20.6437 24.2832 20.4187 24.7557 19.9519 24.6938C19.6312 24.6545 19.5131 24.452 19.6256 24.1482C19.9069 23.4057 20.565 22.6463 21.24 22.2245C21.4875 22.0726 21.9937 22.0332 22.6462 22.1626C22.1681 21.7913 21.3525 21.9095 21.0431 22.0557C20.7787 22.1795 20.8462 22.1288 20.61 21.977C20.4919 21.8982 20.3737 21.8195 20.2612 21.7463C20.3569 21.9038 20.5256 22.0951 20.5537 22.2807C20.5875 22.5113 20.3681 22.7082 20.2331 22.8713C19.8844 23.2876 19.5806 22.9276 19.2206 22.7026C19.4625 22.9895 19.5187 23.0795 19.6425 23.282C19.8056 23.5576 19.5581 23.7826 19.3781 23.9963C19.0125 24.4351 18.2587 23.5407 18.2081 23.597C18.1519 23.6645 19.5187 24.7163 19.5019 25.0988Z" fill="#FFD3B6"/>
<path d="M41.3944 7.21126C40.6856 5.33251 39.1838 4.74189 38.6944 4.59564C38.475 3.91501 37.3556 1.33314 33.1088 1.95189C32.0738 2.10376 31.3144 2.58189 30.6394 3.00376C30.3525 3.18376 30.0769 3.35814 29.8238 3.47064C29.6156 3.56626 29.25 3.65064 28.9519 3.54376C28.2713 3.30751 28.5131 2.27814 28.5131 2.27814C28.5131 2.27814 26.0044 2.72814 27.0394 5.16376C26.1956 5.51814 25.7906 6.40126 25.6275 7.23376C25.4025 8.37001 25.9425 9.47251 27.0281 9.97876C27.0281 9.97876 26.8425 8.13939 29.4919 8.29689C30.3131 8.34751 31.1681 8.48814 31.9388 8.19564C32.2313 8.08314 32.5069 7.90314 32.7938 7.76814H32.895C33.8906 8.32501 32.5237 10.665 33.615 12.0713C33.8287 12.3469 34.02 12.2513 34.02 12.2513L34.4813 11.6044C34.83 11.16 35.145 10.7719 35.5669 10.8731C36.81 11.1713 36.5456 13.3931 35.055 13.86C34.9088 13.905 35.2069 16.3969 38.2781 16.4531C39.8644 16.4813 40.4494 15.1763 40.4494 15.1763C40.4494 15.1763 39.7688 15.3338 39.6338 14.7544C39.5606 14.4563 39.8419 14.0569 40.3481 13.6238C41.7994 12.375 41.31 10.9069 41.1075 10.4456C41.3213 10.0294 41.9456 8.67939 41.3944 7.21126Z" fill="#001022"/>
<path d="M41.0962 10.4513C41.1244 10.4007 40.635 11.5707 38.61 11.3401C37.7775 11.3232 36.5794 13.3144 37.7719 14.6644C38.8294 15.8569 40.4381 15.1819 40.4381 15.1819C40.4381 15.1819 40.2187 15.2438 39.8981 15.1257C39.69 15.0469 39.6225 14.7769 39.6225 14.7657C39.5494 14.4676 39.8306 14.0682 40.3369 13.6351C41.7881 12.3751 41.2987 10.9069 41.0962 10.4513Z" fill="#001022"/>
<path d="M41.3944 7.21132C41.0231 6.22132 40.32 5.38319 39.3863 4.88819C39.2513 4.81507 38.9194 4.64632 38.6888 4.60132C38.79 5.04007 38.7731 5.50694 38.5763 5.97944C38.5706 5.99632 38.3456 6.70507 37.7213 7.26757C38.1544 7.89194 38.3681 8.64569 38.565 9.38819C38.7394 10.0351 38.9025 10.7438 38.61 11.3457C38.9981 11.3288 39.6169 11.4469 40.3031 11.1544C40.9613 10.8732 41.3156 10.1251 41.49 9.45569C41.6756 8.71319 41.6644 7.93132 41.3944 7.21132Z" fill="#001022"/>
<path d="M38.5706 5.97953C39.0825 4.73078 38.4131 3.56078 37.3838 2.76765C36.1744 1.83953 34.5656 1.73828 33.1088 1.95203C32.0738 2.1039 31.3144 2.58203 30.6394 3.0039C30.3525 3.1839 30.0769 3.35828 29.8238 3.47078C29.6156 3.5664 29.25 3.65078 28.9519 3.5439C28.2713 3.30765 28.5131 2.27828 28.5131 2.27828C28.5131 2.27828 26.0044 2.72828 27.0394 5.1639C26.1956 5.51828 25.7906 6.4014 25.6275 7.2339C25.4025 8.37015 25.9425 9.47265 27.0281 9.9789C27.0281 9.9789 26.8425 8.13953 29.4919 8.29703C30.3131 8.34765 31.1681 8.48828 31.9388 8.19578C32.6194 7.93703 32.8556 7.57703 33.6094 7.63328C34.425 7.69515 35.505 8.0214 36.3431 7.9089C38.0419 7.67828 38.565 6.00203 38.5706 5.97953Z" fill="#001022"/>
<path d="M37.7719 14.6644C37.2375 14.0737 37.1081 13.1175 36.2644 12.5887C36.0956 13.14 35.685 13.6631 35.0494 13.86C34.9031 13.905 35.2012 16.3969 38.2725 16.4531C39.8587 16.4812 40.4437 15.1762 40.4437 15.1762C40.4437 15.1762 38.8519 15.8512 37.7719 14.6644Z" fill="#001022"/>
</svg>
