<svg width="73" height="72" viewBox="0 0 73 72" fill="none" xmlns="http://www.w3.org/2000/svg">
<path d="M38.4125 20.3569C38.4125 20.3569 39.0425 22.7869 36.3425 23.4169C33.98 23.9738 33.485 21.5888 33.485 21.5888C33.485 21.5888 32.9619 19.1813 31.8819 18.945C31.4713 18.855 31.3813 18.9563 30.2056 18.7819C28.1975 18.4782 27.6688 17.505 27.5 16.6219C27.4438 16.3519 27.4213 16.0875 27.4044 15.8569C27.3763 15.5363 27.3481 15.2775 27.2356 15.1313C27.1456 15.0132 25.8969 14.535 26.0656 13.9332C26.2906 13.1344 27.7644 12.4988 27.7025 11.7563C27.7081 11.565 27.5844 10.9407 27.5675 10.8563C27.4494 10.1475 27.4888 9.15753 27.7138 8.17878C28.3325 5.47878 30.0931 3.4369 33.1138 3.15003C35.8194 2.90253 38.9131 4.91628 40.1788 7.31815C40.9888 8.8594 39.8131 12.8363 38.4294 14.94C36.6294 17.685 38.4125 20.3569 38.4125 20.3569Z" fill="#FFD3B6"/>
<path d="M28.895 16.3237C28.4675 16.5994 27.9837 16.6781 27.5 16.6219C27.4437 16.3519 27.4212 16.0875 27.4044 15.8569C27.7869 15.9356 28.2706 15.9131 28.5575 15.8175C29.0862 15.6375 29.3675 16.0312 28.895 16.3237Z" fill="#795548"/>
<path d="M30.4864 12.3434C30.5074 11.7971 30.2375 11.3431 29.8836 11.3295C29.5297 11.3159 29.2258 11.7478 29.2048 12.2942C29.1838 12.8405 29.4537 13.2945 29.8076 13.3081C30.1615 13.3217 30.4654 12.8898 30.4864 12.3434Z" fill="#404040"/>
<path d="M29.4913 10.9406C28.8725 11.1431 28.7094 10.7381 28.9119 10.395C29.0581 10.1475 29.4294 9.92809 30.1663 10.0462C30.8581 10.1587 31.1563 10.5468 31.3475 10.7831C31.5388 11.0193 31.5275 11.2612 31.37 11.2837C31.1506 11.3287 30.2563 10.6931 29.4913 10.9406Z" fill="#6D4C41"/>
<path d="M56.1087 46.485L45.6631 48.5719L42.755 38.52L35.7631 43.2056L40.8594 53.4431L40.8819 53.4263C41.3091 54.1844 42.0123 54.7485 42.845 55.0013C43.0981 55.08 43.3512 55.125 43.61 55.1419V55.1531L43.6944 55.1475C44.0094 55.1644 44.3187 55.1419 44.6169 55.08L57.5094 50.1806L56.1087 46.485Z" fill="#008AC7"/>
<path d="M58.3475 44.3419C58.1675 44.0382 57.7794 43.9425 57.4756 44.1225L56.1425 44.9213C55.2369 45.4613 54.7475 46.9969 54.7475 46.9969L56.7275 50.3213L59.5006 52.7288C60.215 53.2856 61.1994 53.3475 61.9812 52.8919L62.5831 52.5375C62.8475 52.38 62.9375 52.0369 62.78 51.7725L58.3475 44.3419Z" fill="#72CDE8"/>
<path d="M25.7337 64.0125L32.1518 51.75C32.1518 51.75 40.145 45.135 40.8425 44.6682C43.4469 42.9244 43.9643 40.5 43.7056 38.7394C43.5031 37.3725 42.5975 35.5557 42.5975 35.5557L32.1068 38.6832L32.6018 40.6069C32.6018 40.6069 29.39 44.7582 28.6418 45.6244C27.8937 46.4907 26.6112 47.7 25.6156 51.1144C24.5637 54.7144 21.9256 63.3938 21.9256 63.3938L25.7337 64.0125Z" fill="#00B1FF"/>
<path d="M25.7281 67.8318C26.0769 67.8881 26.4031 67.6518 26.4594 67.3087L26.7069 65.7731C26.8813 64.7325 26.0206 63.3712 26.0206 63.3712L22.2013 62.7412L18.5731 63.3093C17.6844 63.5006 17.0038 64.2093 16.8519 65.1037L16.7338 65.7956C16.6831 66.0993 16.8856 66.3862 17.1894 66.4368L25.7281 67.8318Z" fill="#72CDE8"/>
<path d="M28.6588 27.5738L23.6188 23.7375L21.1663 26.3588L26.2513 31.2863L26.2569 31.2807C27.2525 32.3213 29.5869 33.03 31.5275 31.2638C33.3725 29.5819 35.6506 25.9988 35.6506 25.9988L31.7075 22.8375L28.6588 27.5738Z" fill="#FFD3B6"/>
<path d="M28.7769 25.2788C30.2225 29.3231 33.7662 29.4469 33.7662 29.4469L36.59 24.6094C36.9545 23.9841 37.0562 23.2397 36.8727 22.5396C36.6893 21.8394 36.2356 21.2406 35.6112 20.8744L35.1444 20.5988C33.845 19.8394 32.7425 20.2106 30.9931 22.7644C29.4237 25.065 28.7769 25.2788 28.7769 25.2788Z" fill="#597B91"/>
<path d="M32.1069 38.6775C30.7119 33.1425 30.4531 29.2556 30.7681 26.1394C31.1731 22.2131 33.0463 19.8675 35.15 19.125C37.7488 18.2081 39.5488 19.53 40.2744 21.8813C40.7694 23.4844 40.6738 24.7163 40.6344 25.4813C40.6344 25.4813 40.2744 29.6831 43.6156 34.9425C43.6156 34.9425 43.295 37.2263 37.9625 38.4806C35.5888 39.0375 32.1069 38.6775 32.1069 38.6775Z" fill="#597B91"/>
<path d="M40.6963 33.5306C40.6963 33.5306 38.255 32.3156 38.2269 32.3044C38.1538 32.265 38.0737 32.2405 37.9911 32.2322C37.9085 32.2239 37.8251 32.232 37.7456 32.256C37.6661 32.2801 37.5922 32.3196 37.5281 32.3723C37.464 32.425 37.4109 32.4898 37.3719 32.5631L36.8488 33.5419C36.7644 33.705 36.7588 33.885 36.815 34.0481C36.5338 34.2112 35.8419 34.6387 35.6956 34.9256C35.5269 35.2519 35.7181 35.595 35.8981 35.6737C36.1063 35.7637 36.2019 36.0562 36.14 36.2756C36.0725 36.5006 36.0781 36.7312 36.185 36.9169C36.2919 37.1025 36.4269 37.1756 36.6856 37.2262C36.8094 37.2487 36.9388 37.4062 36.9388 37.53C36.9331 37.7212 36.9331 38.0531 37.0288 38.1769C37.22 38.43 37.535 38.3512 37.6981 38.5369C37.76 38.61 37.7656 38.9306 37.895 39.0487C38.2775 39.4087 39.5206 38.745 39.5206 38.745L41.8944 36.5456L40.6963 33.5306Z" fill="#FFD3B6"/>
<path d="M39.9088 33.1481L41.4106 33.5699L42.44 36.4106C42.44 36.4106 39.2281 39.5718 38.6825 38.6887C38.5081 38.4131 38.8288 38.1149 38.3619 37.9406C38.03 37.8168 37.7825 37.6593 37.8781 37.1474C37.9175 36.9562 37.7656 36.7199 37.6306 36.7031C37.0231 36.6299 36.8656 36.2924 37.0456 35.8649C37.1469 35.6287 37.1244 35.2293 36.7813 35.0493C36.6575 34.9818 36.4831 34.7062 36.5619 34.3124C36.6913 33.6993 39.9088 33.1481 39.9088 33.1481Z" fill="#FFD3B6"/>
<path d="M41.9731 36.765L47.5363 33.0132V33.0075C48.2056 32.3438 48.4419 31.8825 48.5769 31.3257C49.0044 29.5819 47.8681 28.3669 47.8681 28.3669L42.7213 22.6125L39.5488 25.8919L44.0713 30.4144L40.6906 33.5363L41.9731 36.765Z" fill="#FFD3B6"/>
<path d="M42.0856 29.2556C42.0856 29.2556 45.4944 25.8862 45.4044 23.2931C45.4044 23.2931 43.7787 23.2875 41.36 21.4594C39.8356 20.3119 37.8106 20.2162 36.995 21.555C36.2694 22.7362 36.3875 24.1931 37.7825 25.8637C38.8287 27.1069 42.0856 29.2556 42.0856 29.2556Z" fill="#597B91"/>
<path d="M20.9131 24.4069L20.8962 24.4182C20.6543 24.7219 20.2381 24.8063 19.9681 24.5982L18.8712 23.7713C18.6012 23.5688 18.5787 23.1526 18.8206 22.8488C19.0624 22.5451 19.4787 22.4607 19.7487 22.6688L20.8456 23.4957C21.1212 23.7038 21.1606 24.1032 20.9131 24.4069Z" fill="#FFD3B6"/>
<path d="M21.8356 20.9475C21.8525 20.9588 21.8581 20.97 21.8581 20.97C22.3587 21.5044 22.8031 21.9488 22.9944 22.0669C23.5006 22.3875 23.9731 22.7925 24.2656 23.3607C24.8112 24.4238 24.1137 25.47 23.2981 26.2407C22.4881 27.0169 21.9762 27.1857 21.0931 27.0394C20.3731 26.9213 18.8487 25.3069 18.8487 25.3069C18.6912 25.1213 18.5112 24.93 18.3312 24.75C18.2637 24.6825 18.1906 24.615 18.1231 24.5419L18.1175 24.5363C17.9094 24.3338 17.8812 24.0638 18.1119 23.7825C18.4156 23.4113 18.7137 23.6025 18.7475 23.6307L18.7531 23.6363C18.8937 23.7657 19.0456 23.94 19.1581 24.0244C19.4844 24.2663 19.6644 24.3113 19.6644 24.3113L21.2056 22.3538L20.6825 21.6563C20.6825 21.6563 20.6769 21.645 20.66 21.6282C20.6037 21.5382 20.3844 21.2175 20.8006 20.8407C21.2619 20.4469 21.74 20.8575 21.8356 20.9475Z" fill="#FFD3B6"/>
<path d="M21.785 23.6026C21.515 23.8894 21.0931 23.9344 20.84 23.7094L19.6756 22.6688C19.4225 22.4438 19.4337 22.0276 19.7037 21.7407C19.9737 21.4538 20.3956 21.4088 20.6487 21.6338L21.8131 22.6744C22.0606 22.9051 22.0494 23.3157 21.785 23.6026Z" fill="#FFD3B6"/>
<path d="M20.2719 23.7713C20.525 23.4057 20.8344 22.9557 21.1775 22.5676C21.2281 22.5113 21.2731 22.4607 21.3237 22.4101C21.7962 21.9207 22.415 21.8363 23.1912 22.2582C23.2194 22.2751 23.2419 22.2863 23.27 22.3032C23.315 22.3313 23.36 22.3594 23.4106 22.3876L23.4162 22.3932C23.4837 22.4382 23.5512 22.4832 23.6187 22.5338C23.8494 22.7026 24.0237 22.9107 24.1306 23.1132C24.5581 23.7938 24.4344 24.4407 24.4344 24.4407C24.4344 24.4407 23.9394 25.9482 23.2081 25.6838C22.4769 25.4194 22.1 24.3788 22.1 24.3788L22.2912 23.6251C22.0719 23.6026 21.8806 23.6982 21.6219 23.9907C21.5375 24.0863 21.4419 24.2044 21.3294 24.3451C21.3181 24.3619 21.1775 24.5363 21.1662 24.5476C20.9975 24.7332 20.8062 24.8232 20.5756 24.8063C20.2775 24.7894 20.0244 24.5026 19.8837 24.3901C19.9906 24.2551 20.1312 23.9682 20.2719 23.7713Z" fill="#FFD3B6"/>
<path d="M19.94 25.5094L20.8513 24.7613L21.335 24.2101L21.965 23.6588L22.1844 23.7544L22.0494 24.4744L22.5219 25.1832L22.82 25.4363L21.2731 26.5332L19.94 25.5094Z" fill="#FFD3B6"/>
<path d="M20.0019 25.0988C19.985 25.4476 19.6475 25.6388 19.67 25.6445C19.7656 25.6838 20.2381 25.5657 20.7612 24.9807C21.1662 24.5251 21.5544 23.9345 22.0269 23.7938C21.8637 24.5926 22.2181 25.2057 22.8706 25.4476C22.37 24.9807 21.965 24.1932 22.4206 23.5632C22.0494 23.3382 21.6162 23.7095 21.3969 23.9795C21.1437 24.2832 20.9187 24.7557 20.4519 24.6938C20.1312 24.6545 20.0131 24.452 20.1256 24.1482C20.4069 23.4057 21.065 22.6463 21.74 22.2245C21.9875 22.0726 22.4937 22.0332 23.1462 22.1626C22.6681 21.7913 21.8525 21.9095 21.5431 22.0557C21.2787 22.1795 21.3462 22.1288 21.11 21.977C20.9919 21.8982 20.8737 21.8195 20.7612 21.7463C20.8569 21.9038 21.0256 22.0951 21.0537 22.2807C21.0875 22.5113 20.8681 22.7082 20.7331 22.8713C20.3844 23.2876 20.0806 22.9276 19.7206 22.7026C19.9625 22.9895 20.0187 23.0795 20.1425 23.282C20.3056 23.5576 20.0581 23.7826 19.8781 23.9963C19.5125 24.4351 18.7587 23.5407 18.7081 23.597C18.6519 23.6645 20.0187 24.7163 20.0019 25.0988Z" fill="#FFD3B6"/>
<path d="M41.8944 7.21126C41.1856 5.33251 39.6838 4.74189 39.1944 4.59564C38.975 3.91501 37.8556 1.33314 33.6088 1.95189C32.5738 2.10376 31.8144 2.58189 31.1394 3.00376C30.8525 3.18376 30.5769 3.35814 30.3238 3.47064C30.1156 3.56626 29.75 3.65064 29.4519 3.54376C28.7713 3.30751 29.0131 2.27814 29.0131 2.27814C29.0131 2.27814 26.5044 2.72814 27.5394 5.16376C26.6956 5.51814 26.2906 6.40126 26.1275 7.23376C25.9025 8.37001 26.4425 9.47251 27.5281 9.97876C27.5281 9.97876 27.3425 8.13939 29.9919 8.29689C30.8131 8.34751 31.6681 8.48814 32.4388 8.19564C32.7313 8.08314 33.0069 7.90314 33.2938 7.76814H33.395C34.3906 8.32501 33.0237 10.665 34.115 12.0713C34.3287 12.3469 34.52 12.2513 34.52 12.2513L34.9813 11.6044C35.33 11.16 35.645 10.7719 36.0669 10.8731C37.31 11.1713 37.0456 13.3931 35.555 13.86C35.4088 13.905 35.7069 16.3969 38.7781 16.4531C40.3644 16.4813 40.9494 15.1763 40.9494 15.1763C40.9494 15.1763 40.2688 15.3338 40.1338 14.7544C40.0606 14.4563 40.3419 14.0569 40.8481 13.6238C42.2994 12.375 41.81 10.9069 41.6075 10.4456C41.8213 10.0294 42.4456 8.67939 41.8944 7.21126Z" fill="#CF5700"/>
<path d="M41.5962 10.4513C41.6244 10.4007 41.135 11.5707 39.11 11.3401C38.2775 11.3232 37.0794 13.3144 38.2719 14.6644C39.3294 15.8569 40.9381 15.1819 40.9381 15.1819C40.9381 15.1819 40.7187 15.2438 40.3981 15.1257C40.19 15.0469 40.1225 14.7769 40.1225 14.7657C40.0494 14.4676 40.3306 14.0682 40.8369 13.6351C42.2881 12.3751 41.7987 10.9069 41.5962 10.4513Z" fill="#CF5700"/>
<path d="M41.8944 7.21132C41.5231 6.22132 40.82 5.38319 39.8863 4.88819C39.7513 4.81507 39.4194 4.64632 39.1888 4.60132C39.29 5.04007 39.2731 5.50694 39.0763 5.97944C39.0706 5.99632 38.8456 6.70507 38.2213 7.26757C38.6544 7.89194 38.8681 8.64569 39.065 9.38819C39.2394 10.0351 39.4025 10.7438 39.11 11.3457C39.4981 11.3288 40.1169 11.4469 40.8031 11.1544C41.4613 10.8732 41.8156 10.1251 41.99 9.45569C42.1756 8.71319 42.1644 7.93132 41.8944 7.21132Z" fill="#CF5700"/>
<path d="M39.0706 5.97953C39.5825 4.73078 38.9131 3.56078 37.8838 2.76765C36.6744 1.83953 35.0656 1.73828 33.6088 1.95203C32.5738 2.1039 31.8144 2.58203 31.1394 3.0039C30.8525 3.1839 30.5769 3.35828 30.3238 3.47078C30.1156 3.5664 29.75 3.65078 29.4519 3.5439C28.7713 3.30765 29.0131 2.27828 29.0131 2.27828C29.0131 2.27828 26.5044 2.72828 27.5394 5.1639C26.6956 5.51828 26.2906 6.4014 26.1275 7.2339C25.9025 8.37015 26.4425 9.47265 27.5281 9.9789C27.5281 9.9789 27.3425 8.13953 29.9919 8.29703C30.8131 8.34765 31.6681 8.48828 32.4388 8.19578C33.1194 7.93703 33.3556 7.57703 34.1094 7.63328C34.925 7.69515 36.005 8.0214 36.8431 7.9089C38.5419 7.67828 39.065 6.00203 39.0706 5.97953Z" fill="#CF5700"/>
<path d="M38.2719 14.6644C37.7375 14.0737 37.6081 13.1175 36.7644 12.5887C36.5956 13.14 36.185 13.6631 35.5494 13.86C35.4031 13.905 35.7012 16.3969 38.7725 16.4531C40.3587 16.4812 40.9437 15.1762 40.9437 15.1762C40.9437 15.1762 39.3519 15.8512 38.2719 14.6644Z" fill="url(#paint0_radial_1400_945)"/>
<defs>
<radialGradient id="paint0_radial_1400_945" cx="0" cy="0" r="1" gradientUnits="userSpaceOnUse" gradientTransform="translate(38.6946 13.8373) rotate(15.3024) scale(4.50372 2.89559)">
<stop offset="0.45" stop-color="#6D4C41" stop-opacity="0"/>
<stop offset="1" stop-color="#6D4C41"/>
</radialGradient>
</defs>
</svg>
