<svg width="48" height="48" viewBox="0 0 48 48" fill="none" xmlns="http://www.w3.org/2000/svg">
<path fill-rule="evenodd" clip-rule="evenodd" d="M10.3273 24C10.3273 22.4757 10.5804 21.0144 11.0323 19.6437L3.12344 13.6043C1.58205 16.7339 0.713623 20.2603 0.713623 24C0.713623 27.7365 1.58099 31.2608 3.12024 34.3883L11.0248 28.3371C10.5772 26.9728 10.3273 25.5168 10.3273 24Z" fill="#FBBC05"/>
<path fill-rule="evenodd" clip-rule="evenodd" d="M24.2137 10.1333C27.5251 10.1333 30.516 11.3067 32.866 13.2267L39.7024 6.39999C35.5364 2.77332 30.1955 0.533321 24.2137 0.533321C14.9269 0.533321 6.94549 5.84425 3.12354 13.6043L11.0324 19.6437C12.8547 14.112 18.0492 10.1333 24.2137 10.1333Z" fill="#EB4335"/>
<path fill-rule="evenodd" clip-rule="evenodd" d="M24.2137 37.8667C18.0492 37.8667 12.8547 33.888 11.0324 28.3563L3.12354 34.3947C6.94549 42.1557 14.9269 47.4667 24.2137 47.4667C29.9456 47.4667 35.4179 45.4315 39.525 41.6181L32.0179 35.8144C29.8996 37.1488 27.2324 37.8667 24.2137 37.8667Z" fill="#34A853"/>
<path fill-rule="evenodd" clip-rule="evenodd" d="M46.6454 24C46.6454 22.6133 46.4318 21.12 46.1113 19.7333H24.2136V28.8H36.8182C36.1879 31.8912 34.4724 34.2677 32.0178 35.8144L39.5249 41.6181C43.8393 37.6139 46.6454 31.6491 46.6454 24Z" fill="#4285F4"/>
</svg>
