<svg width="16" height="16" viewBox="0 0 16 16" fill="none" xmlns="http://www.w3.org/2000/svg">
<path d="M1.02319 7.31427C1.07231 6.50837 1.09687 6.10543 1.30569 5.71786C1.49649 5.36375 1.86153 5.02028 2.22659 4.85138C2.62614 4.66653 3.08411 4.66653 4.00005 4.66653C4.34143 4.66653 4.51213 4.66653 4.67747 4.63861C4.84092 4.611 5.00031 4.56319 5.15197 4.49625C5.30537 4.42855 5.44787 4.33459 5.73288 4.14668L5.87883 4.05044C7.57414 2.93265 8.4218 2.37375 9.1334 2.61658C9.2698 2.66313 9.40187 2.73034 9.5198 2.81323C10.1349 3.24553 10.1817 4.25133 10.2751 6.26293C10.3097 7.0078 10.3333 7.64527 10.3333 7.99987C10.3333 8.35447 10.3097 8.99193 10.2751 9.7368C10.1817 11.7484 10.1349 12.7542 9.5198 13.1865C9.40187 13.2694 9.2698 13.3366 9.1334 13.3831C8.4218 13.6259 7.57414 13.0671 5.87883 11.9493L5.73288 11.8531C5.44787 11.6651 5.30537 11.5711 5.15197 11.5035C5.00031 11.4365 4.84092 11.3887 4.67747 11.3611C4.51213 11.3332 4.34143 11.3332 4.00005 11.3332C3.08411 11.3332 2.62614 11.3332 2.22659 11.1483C1.86153 10.9795 1.49649 10.6359 1.30569 10.2819C1.09687 9.89427 1.07231 9.49133 1.02319 8.68547C1.00866 8.44707 1 8.2148 1 7.99987C1 7.78493 1.00866 7.55267 1.02319 7.31427Z" stroke="#191A1C"/>
<path d="M13.3334 4C13.3334 4 14.3334 5.2 14.3334 8C14.3334 10.8 13.3334 12 13.3334 12" stroke="#191A1C" stroke-linecap="round"/>
<path d="M12 6C12 6 12.3333 6.6 12.3333 8C12.3333 9.4 12 10 12 10" stroke="#191A1C" stroke-linecap="round"/>
</svg>
