<svg width="16" height="16" viewBox="0 0 16 16" fill="none" xmlns="http://www.w3.org/2000/svg">
<g clip-path="url(#clip0_1627_26)">
<path d="M10.8333 7.99984C10.8333 7.72371 10.6095 7.49984 10.3333 7.49984C10.0572 7.49984 9.83333 7.72371 9.83333 7.99984H10.8333ZM6.60738 11.8301C6.37641 11.6788 6.06648 11.7433 5.91513 11.9743C5.76377 12.2052 5.82831 12.5152 6.05929 12.6665L6.60738 11.8301ZM6.00811 4.56409L6.15407 4.46785L5.60361 3.63299L5.45765 3.72923L6.00811 4.56409ZM1.52227 8.65505C1.50817 8.42371 1.5 8.20198 1.5 7.99984H0.5C0.5 8.22758 0.509155 8.47038 0.524119 8.71584L1.52227 8.65505ZM1.5 7.99984C1.5 7.79771 1.50817 7.57598 1.52227 7.34465L0.524119 7.28384C0.509155 7.52931 0.5 7.77211 0.5 7.99984H1.5ZM9.83333 7.99984C9.83333 8.34104 9.8104 8.96718 9.77567 9.71358L10.7746 9.75998C10.8091 9.01664 10.8333 8.36784 10.8333 7.99984H9.83333ZM4.00005 5.16651C4.32514 5.16651 4.54455 5.16811 4.76072 5.13161L4.59421 4.14557C4.47971 4.1649 4.35773 4.16651 4.00005 4.16651V5.16651ZM5.45765 3.72923C5.15904 3.92611 5.05632 3.99192 4.95009 4.0388L5.35385 4.95367C5.55442 4.86515 5.73671 4.74303 6.00811 4.56409L5.45765 3.72923ZM4.76072 5.13161C4.96504 5.0971 5.16427 5.03733 5.35385 4.95367L4.95009 4.0388C4.83635 4.089 4.7168 4.12486 4.59421 4.14557L4.76072 5.13161ZM4.00005 11.8332C4.35773 11.8332 4.47971 11.8348 4.59421 11.8541L4.76072 10.868C4.54455 10.8316 4.32514 10.8332 4.00005 10.8332V11.8332ZM4.00005 10.8332C3.03761 10.8332 2.71274 10.8223 2.43653 10.6945L2.01664 11.6021C2.53954 11.844 3.13062 11.8332 4.00005 11.8332V10.8332ZM0.524119 8.71584C0.570989 9.48484 0.593394 10.014 0.86552 10.519L1.74587 10.0446C1.60035 9.77458 1.57363 9.49778 1.52227 8.65505L0.524119 8.71584ZM2.43653 10.6945C2.16963 10.571 1.88536 10.3036 1.74587 10.0446L0.86552 10.519C1.10761 10.9683 1.55344 11.3878 2.01664 11.6021L2.43653 10.6945ZM9.77567 9.71358C9.72827 10.734 9.694 11.4487 9.601 11.9652C9.5084 12.4795 9.37673 12.6759 9.23233 12.7774L9.80727 13.5956C10.278 13.2648 10.4773 12.742 10.5852 12.1424C10.6927 11.5452 10.7285 10.751 10.7746 9.75998L9.77567 9.71358ZM9.29487 13.8563C9.47613 13.7944 9.6506 13.7056 9.80727 13.5956L9.23233 12.7774C9.15313 12.833 9.06347 12.8786 8.97187 12.9099L9.29487 13.8563ZM6.15407 4.46785C7.01393 3.90091 7.61733 3.50431 8.09347 3.27301C8.56833 3.04233 8.8058 3.03308 8.97187 3.08977L9.29487 2.14335C8.7494 1.95722 8.2072 2.10601 7.65653 2.37352C7.10713 2.6404 6.43905 3.08215 5.60361 3.63299L6.15407 4.46785ZM8.97187 3.08977C9.06347 3.12103 9.15313 3.16663 9.23233 3.22229L9.80727 2.40412C9.6506 2.294 9.47613 2.20521 9.29487 2.14335L8.97187 3.08977ZM4.00005 4.16651C3.13062 4.16651 2.53954 4.15565 2.01664 4.39758L2.43653 5.30515C2.71274 5.17736 3.03761 5.16651 4.00005 5.16651V4.16651ZM1.52227 7.34465C1.57363 6.50188 1.60035 6.22508 1.74587 5.95501L0.86552 5.48067C0.593394 5.98572 0.570989 6.51482 0.524119 7.28384L1.52227 7.34465ZM2.01664 4.39758C1.55344 4.61188 1.10761 5.03137 0.86552 5.48067L1.74587 5.95501C1.88536 5.69611 2.16963 5.42863 2.43653 5.30515L2.01664 4.39758ZM6.05929 12.6665C6.7518 13.1204 7.325 13.483 7.8136 13.6992C8.30847 13.918 8.8002 14.0251 9.29487 13.8563L8.97187 12.9099C8.8216 12.9612 8.61247 12.959 8.21813 12.7846C7.8176 12.6074 7.3132 12.2926 6.60738 11.8301L6.05929 12.6665ZM10.7487 5.69316C10.7083 4.87507 10.6642 4.20455 10.5513 3.68633C10.4368 3.16071 10.2335 2.70369 9.80727 2.40412L9.23233 3.22229C9.36287 3.31405 9.4836 3.48336 9.57427 3.89923C9.66647 4.32251 9.70873 4.90862 9.74993 5.7425L10.7487 5.69316Z" fill="#191A1C"/>
<path d="M13.3334 12C13.3334 12 14.3334 10.8 14.3334 8.00002C14.3334 6.37774 13.9977 5.29257 13.7153 4.66669" stroke="#191A1C" stroke-linecap="round"/>
<path d="M12 10C12 10 12.3333 9.40002 12.3333 8.00002C12.3333 7.42542 12.2772 6.98562 12.211 6.66669" stroke="#191A1C" stroke-linecap="round"/>
<path d="M14.6667 1.33331L1.33337 14.6666" stroke="#191A1C" stroke-linecap="round"/>
</g>
<defs>
<clipPath id="clip0_1627_26">
<rect width="16" height="16" fill="white"/>
</clipPath>
</defs>
</svg>
