<svg width="280" height="407" viewBox="0 0 280 407" fill="none" xmlns="http://www.w3.org/2000/svg">
<path d="M60.4277 1C62.2518 1 63.8679 2.25097 64.4169 4.05335L65.3735 3.76195L64.4169 4.05335C74.2818 36.437 104.388 60 140 60C175.612 60 205.718 36.437 215.583 4.05336C216.132 2.25097 217.748 1 219.572 1H270C274.971 1 279 5.02944 279 10V397C279 401.971 274.971 406 270 406H10C5.02943 406 1 401.971 1 397V9.99998C1 5.02943 5.02943 1 10 1H60.4277Z" fill="#6E7566" fill-opacity="0.3" stroke="#999B95" stroke-width="2"/>
</svg>
