<svg width="90" height="95" viewBox="0 0 90 95" fill="none" xmlns="http://www.w3.org/2000/svg">
<path d="M88.0976 26.1875C87.0037 26.5412 85.8389 26.7386 84.6261 26.7386C78.4194 26.7386 73.3876 21.7191 73.3876 15.5277C73.3876 14.0808 73.6723 12.7016 74.1728 11.432L44.9995 0L15.8272 11.432C16.3277 12.7026 16.6124 14.0808 16.6124 15.5277C16.6124 21.7191 11.5806 26.7386 5.37388 26.7386C4.16212 26.7386 2.99631 26.5422 1.90242 26.1875C-2.32826 43.9763 -3.71485 79.3088 45.0005 95C93.7148 79.3088 92.3283 43.9763 88.0976 26.1875Z" fill="url(#paint0_linear_20_2063)"/>
<path d="M20.5164 32.1925V13.8765L15.8262 11.4321C16.3267 12.7026 16.6114 14.0808 16.6114 15.5277C16.6114 21.7191 11.5795 26.7386 5.37283 26.7386C4.16106 26.7386 2.99525 26.5423 1.90137 26.1875L5.03017 30.7206L20.5164 32.1925Z" fill="url(#paint1_linear_20_2063)"/>
<path d="M69.4827 13.8765V36.0122H78.2158L84.9679 30.7206L88.0967 26.1875C87.0028 26.5413 85.838 26.7386 84.6252 26.7386C78.4186 26.7386 73.3867 21.7191 73.3867 15.5277C73.3867 14.0808 73.6714 12.7016 74.1719 11.4321L69.4827 13.8765Z" fill="url(#paint2_linear_20_2063)"/>
<path d="M44.9995 90.8027V95C93.7149 79.3088 92.3273 43.9763 88.0976 26.1875L84.9688 30.7206L44.9995 90.8027Z" fill="url(#paint3_linear_20_2063)"/>
<path d="M44.9994 90.8027C4.09009 77.0866 1.75348 48.7058 5.03114 30.7206C5.14502 30.7236 5.2589 30.7246 5.37278 30.7246C13.7732 30.7246 20.6073 23.9075 20.6073 15.5277C20.6073 14.9737 20.5773 14.4236 20.5164 13.8765L44.9994 4.28304L69.4824 13.8765C69.4215 14.4236 69.3915 14.9747 69.3915 15.5277C69.3915 23.9075 76.2256 30.7246 84.626 30.7246C84.7399 30.7246 84.8548 30.7236 84.9677 30.7206C88.2453 48.7058 85.9087 77.0866 44.9994 90.8027Z" fill="url(#paint4_linear_20_2063)"/>
<path opacity="0.9" d="M84.9678 30.7206C84.9678 30.7206 85.0237 31.0276 85.1276 31.6036C85.2405 32.1776 85.3723 33.0266 85.5362 34.1078C85.685 35.191 85.8429 36.5084 85.9657 38.0281C86.0646 39.5468 86.1735 41.2668 86.1126 43.1442C86.0676 45.0197 85.9527 47.0546 85.6431 49.1861C85.3374 51.3147 84.9178 53.5529 84.2505 55.809C83.5912 58.0651 82.739 60.3471 81.6871 62.5833C80.6212 64.8135 79.3285 66.9749 77.89 69.0338C76.4404 71.0896 74.7572 72.963 73.0389 74.7368C72.1408 75.5859 71.2827 76.4628 70.3456 77.2311C69.8851 77.6237 69.4356 78.0243 68.9731 78.402C68.5005 78.7667 68.032 79.1295 67.5665 79.4902C65.7024 80.9242 63.7943 82.1649 61.9552 83.2859C60.1001 84.3811 58.3129 85.3587 56.6196 86.1748C54.9474 87.0328 53.345 87.6746 51.9454 88.2785C50.5199 88.8226 49.2901 89.3318 48.2552 89.6896C46.1833 90.4001 45.0005 90.8057 45.0005 90.8057C45.0005 90.8057 46.1733 90.3712 48.2262 89.6108C49.2512 89.2282 50.4669 88.6901 51.8755 88.1131C52.5768 87.8171 53.303 87.4554 54.0792 87.0996C54.8554 86.7439 55.6736 86.3751 56.4998 85.9337C58.1801 85.1056 59.9523 84.117 61.7894 83.0119C63.6095 81.8799 65.4966 80.6302 67.3367 79.1903C67.7953 78.8295 68.2588 78.4648 68.7253 78.0991C69.1728 77.7094 69.6234 77.3188 70.0779 76.9252C71.002 76.1559 71.8451 75.2779 72.7282 74.4289C74.4165 72.6581 76.0658 70.7866 77.4854 68.7448C78.9249 66.7208 80.2216 64.5933 81.2955 62.394C82.3554 60.1887 83.2195 57.9345 83.8919 55.7033C84.5722 53.4721 85.0077 51.2529 85.3284 49.1413C85.654 47.0267 85.7859 45.0037 85.8469 43.1383C85.9118 41.2718 85.8489 39.5578 85.7889 38.0411C85.703 36.5244 85.5781 35.204 85.4563 34.1198C85.3184 33.0375 85.2075 32.1865 85.1086 31.6085C85.0167 31.0296 84.9678 30.7206 84.9678 30.7206Z" fill="white"/>
<path d="M44.9995 0V4.28303L69.4826 13.8765L74.1728 11.432L44.9995 0Z" fill="url(#paint5_linear_20_2063)"/>
<path d="M22.7301 65.9714L17.7302 34.907L35.4192 43.2578L45.0004 26.7037L54.5817 43.2578L72.2696 34.908L67.2937 66.0143L22.7301 65.9714Z" fill="#893B0C"/>
<path d="M71.5984 35.8009L54.3699 43.9335L45.0005 27.744L35.63 43.9335L18.4026 35.8009L23.1757 65.4513L66.8492 65.4941L71.5984 35.8009Z" fill="url(#paint6_linear_20_2063)"/>
<path d="M26.3033 61.7871L23.1335 42.0939L37.1163 48.6938L44.9963 35.0784L52.8752 48.6938L66.866 42.0879L63.7102 61.8249L26.3033 61.7871Z" fill="url(#paint7_linear_20_2063)"/>
<path d="M66.849 65.4941L63.7102 61.8249L26.3034 61.7871L23.1755 65.4513L66.849 65.4941Z" fill="url(#paint8_linear_20_2063)"/>
<path d="M35.6299 43.9335L37.1164 48.6938L44.9963 35.0784L45.0003 27.744L35.6299 43.9335Z" fill="#E8F983"/>
<path d="M45.0003 27.744L44.9963 35.0784L52.8753 48.6938L54.3698 43.9335L45.0003 27.744Z" fill="url(#paint9_linear_20_2063)"/>
<path d="M71.5984 35.8009L66.8662 42.0879L63.7104 61.8249L66.8492 65.4941L71.5984 35.8009Z" fill="url(#paint10_linear_20_2063)"/>
<g opacity="0.9">
<path d="M66.8663 42.0879C66.8663 42.0879 66.7474 43.3336 66.5116 45.1941C66.3847 46.1228 66.2569 47.208 66.081 48.367C65.9072 49.5249 65.7204 50.7596 65.5346 51.9963C65.3258 53.227 65.118 54.4597 64.9222 55.6146C64.7294 56.7696 64.5097 57.8409 64.3418 58.7636C63.9862 60.6042 63.7095 61.8249 63.7095 61.8249C63.7095 61.8249 63.8273 60.5783 64.0641 58.7188C64.192 57.79 64.3168 56.7048 64.4947 55.5459C64.6695 54.3879 64.8553 53.1532 65.0411 51.9166C65.2499 50.6849 65.4577 49.4532 65.6535 48.2982C65.8473 47.1432 66.0661 46.072 66.2339 45.1492C66.5905 43.3097 66.8663 42.0879 66.8663 42.0879Z" fill="white"/>
</g>
<path d="M18.4026 35.8009L23.1338 42.0939L37.1165 48.6938L35.63 43.9335L18.4026 35.8009Z" fill="url(#paint11_linear_20_2063)"/>
<path d="M68.4316 52.6729C67.3736 58.375 65.105 62.7447 63.3677 62.4268C61.6275 62.105 61.0801 57.215 62.146 51.506C63.2089 45.7969 65.4746 41.4372 67.2118 41.7611C68.949 42.0789 69.4945 46.9679 68.4316 52.6729Z" fill="url(#paint12_radial_20_2063)"/>
<path opacity="0.4" d="M0.150391 37.5827C0.440095 33.3435 1.1224 29.467 1.9026 26.1875C2.99649 26.5412 4.1613 26.7386 5.37406 26.7386C7.42497 26.7386 9.34202 26.1815 10.9963 25.2238L69.0821 83.1674C64.9403 86.2177 60.0313 89.0398 54.2412 91.5391L0.150391 37.5827ZM44.9997 0L25.3986 7.68116L84.1178 66.2555C88.9229 57.3715 90.2266 48.0859 89.9678 39.9235L53.1454 3.19184L44.9997 0Z" fill="url(#paint13_linear_20_2063)"/>
<defs>
<linearGradient id="paint0_linear_20_2063" x1="-13.3641" y1="-43.5714" x2="79.2238" y2="95.1547" gradientUnits="userSpaceOnUse">
<stop stop-color="#AF6517"/>
<stop offset="0.257" stop-color="#E0A03B"/>
<stop offset="0.48" stop-color="#E9FF88"/>
<stop offset="0.6391" stop-color="#E0A03B"/>
<stop offset="1" stop-color="#88390B"/>
</linearGradient>
<linearGradient id="paint1_linear_20_2063" x1="25.6149" y1="11.9719" x2="6.77286" y2="34.6045" gradientUnits="userSpaceOnUse">
<stop stop-color="#AF6517"/>
<stop offset="0.257" stop-color="#E0A03B"/>
<stop offset="0.48" stop-color="#E9FF88"/>
<stop offset="0.6391" stop-color="#E0A03B"/>
<stop offset="1" stop-color="#88390B"/>
</linearGradient>
<linearGradient id="paint2_linear_20_2063" x1="68.0924" y1="17.1899" x2="80.6031" y2="33.5377" gradientUnits="userSpaceOnUse">
<stop stop-color="#AF6517"/>
<stop offset="0.257" stop-color="#E0A03B"/>
<stop offset="0.48" stop-color="#E9FF88"/>
<stop offset="0.6391" stop-color="#E0A03B"/>
<stop offset="1" stop-color="#88390B"/>
</linearGradient>
<linearGradient id="paint3_linear_20_2063" x1="87.3878" y1="-16.4406" x2="62.6958" y2="90.8777" gradientUnits="userSpaceOnUse">
<stop stop-color="#AF6517"/>
<stop offset="0.257" stop-color="#E0A03B"/>
<stop offset="0.48" stop-color="#E9FF88"/>
<stop offset="0.6391" stop-color="#E0A03B"/>
<stop offset="1" stop-color="#88390B"/>
</linearGradient>
<linearGradient id="paint4_linear_20_2063" x1="-30.7728" y1="-20.2499" x2="161.621" y2="148.303" gradientUnits="userSpaceOnUse">
<stop stop-color="#AF6517"/>
<stop offset="0.257" stop-color="#E0A03B"/>
<stop offset="0.48" stop-color="#E9FF88"/>
<stop offset="0.6391" stop-color="#E0A03B"/>
<stop offset="1" stop-color="#88390B"/>
</linearGradient>
<linearGradient id="paint5_linear_20_2063" x1="3.38363" y1="-11.8429" x2="92.9932" y2="19.5604" gradientUnits="userSpaceOnUse">
<stop stop-color="#AF6517"/>
<stop offset="0.257" stop-color="#E0A03B"/>
<stop offset="0.48" stop-color="#E9FF88"/>
<stop offset="0.6391" stop-color="#E0A03B"/>
<stop offset="1" stop-color="#88390B"/>
</linearGradient>
<linearGradient id="paint6_linear_20_2063" x1="15.4414" y1="43.106" x2="88.6041" y2="56.8736" gradientUnits="userSpaceOnUse">
<stop stop-color="#AF6517"/>
<stop offset="0.257" stop-color="#E0A03B"/>
<stop offset="0.48" stop-color="#E9FF88"/>
<stop offset="0.6391" stop-color="#E0A03B"/>
<stop offset="1" stop-color="#88390B"/>
</linearGradient>
<linearGradient id="paint7_linear_20_2063" x1="10.0042" y1="24.4806" x2="83.1484" y2="79.6538" gradientUnits="userSpaceOnUse">
<stop stop-color="#AF6517"/>
<stop offset="0.257" stop-color="#E0A03B"/>
<stop offset="0.48" stop-color="#E9FF88"/>
<stop offset="0.6391" stop-color="#E0A03B"/>
<stop offset="1" stop-color="#88390B"/>
</linearGradient>
<linearGradient id="paint8_linear_20_2063" x1="-31.8133" y1="-27.9914" x2="37.5345" y2="56.7932" gradientUnits="userSpaceOnUse">
<stop stop-color="#AF6517"/>
<stop offset="0.257" stop-color="#E0A03B"/>
<stop offset="0.48" stop-color="#E9FF88"/>
<stop offset="0.6391" stop-color="#E0A03B"/>
<stop offset="1" stop-color="#88390B"/>
</linearGradient>
<linearGradient id="paint9_linear_20_2063" x1="47.4987" y1="34.3283" x2="62.4132" y2="69.8564" gradientUnits="userSpaceOnUse">
<stop stop-color="#E0A03B"/>
<stop offset="1" stop-color="#88390B"/>
</linearGradient>
<linearGradient id="paint10_linear_20_2063" x1="49.0296" y1="42.088" x2="84.4662" y2="57.1823" gradientUnits="userSpaceOnUse">
<stop stop-color="#AF6517"/>
<stop offset="0.257" stop-color="#E0A03B"/>
<stop offset="0.48" stop-color="#E9FF88"/>
<stop offset="0.6391" stop-color="#E0A03B"/>
<stop offset="1" stop-color="#88390B"/>
</linearGradient>
<linearGradient id="paint11_linear_20_2063" x1="9.60625" y1="32.251" x2="36.2745" y2="46.8368" gradientUnits="userSpaceOnUse">
<stop stop-color="#AF6517"/>
<stop offset="0.257" stop-color="#E0A03B"/>
<stop offset="0.48" stop-color="#E9FF88"/>
<stop offset="0.6391" stop-color="#E0A03B"/>
<stop offset="1" stop-color="#88390B"/>
</linearGradient>
<radialGradient id="paint12_radial_20_2063" cx="0" cy="0" r="1" gradientUnits="userSpaceOnUse" gradientTransform="translate(65.2856 52.2428) rotate(10.5073) scale(2.80414 9.66995)">
<stop stop-color="white"/>
<stop offset="1" stop-color="white" stop-opacity="0"/>
</radialGradient>
<linearGradient id="paint13_linear_20_2063" x1="-6.01483" y1="45.3551" x2="94.2576" y2="46.1062" gradientUnits="userSpaceOnUse">
<stop stop-color="white"/>
<stop offset="1" stop-color="#FAF7F5" stop-opacity="0"/>
</linearGradient>
</defs>
</svg>
